<svg xmlns="http://www.w3.org/2000/svg" width="1000" height="640" viewBox="0 0 1000 640" role="img" aria-labelledby="title"><title id="title">Simulación comercial: gráfico ficticio de escenarios</title><rect x="0" y="0" width="1000" height="640" rx="0" fill="#f4f5f2" stroke="none"/><rect x="0" y="0" width="1000" height="66" rx="0" fill="#ffffff" stroke="none"/><text x="30" y="40" fill="#111314" font-size="20" font-weight="600" font-family="Arial, sans-serif">Simulación comercial</text><text x="30" y="94" fill="#4b5052" font-size="13" font-weight="400" font-family="Arial, sans-serif">Escenario y proyección de ejemplo</text><rect x="764" y="18" width="202" height="30" rx="8" fill="#eef3ed" stroke="none"/><text x="776" y="38" fill="#365542" font-size="12" font-weight="600" font-family="Arial, sans-serif">DEMO ILUSTRATIVA</text><path d="M0 66h1000" stroke="#e0e4e0"/><rect x="30" y="124" width="272" height="438" rx="8" fill="#fff" stroke="#e0e4e0"/><text x="48" y="154" fill="#111314" font-size="17" font-weight="600" font-family="Arial, sans-serif">Supuestos del escenario</text><text x="48" y="182" fill="#4b5052" font-size="13" font-weight="400" font-family="Arial, sans-serif">Variables ficticias de demostración</text><text x="50" y="244" fill="#4b5052" font-size="14" font-weight="400" font-family="Arial, sans-serif">Horizonte de análisis</text><rect x="50" y="264" width="230" height="42" rx="8" fill="#f4f5f2" stroke="none"/><text x="65" y="290" fill="#4b5052" font-size="14" font-weight="400" font-family="Arial, sans-serif">Periodo de ejemplo</text><text x="50" y="342" fill="#4b5052" font-size="14" font-weight="400" font-family="Arial, sans-serif">Escenario seleccionado</text><rect x="50" y="362" width="230" height="42" rx="8" fill="#f4f5f2" stroke="none"/><text x="65" y="388" fill="#4b5052" font-size="14" font-weight="400" font-family="Arial, sans-serif">Escenario A</text><text x="50" y="440" fill="#4b5052" font-size="14" font-weight="400" font-family="Arial, sans-serif">Parámetros ajustables</text><rect x="50" y="460" width="230" height="42" rx="8" fill="#f4f5f2" stroke="none"/><text x="65" y="486" fill="#4b5052" font-size="14" font-weight="400" font-family="Arial, sans-serif">Valores de ejemplo</text><rect x="325" y="124" width="645" height="438" rx="8" fill="#fff" stroke="#e0e4e0"/><text x="348" y="166" fill="#111314" font-size="23" font-weight="600" font-family="Arial, sans-serif">Comparación visual</text><text x="348" y="196" fill="#4b5052" font-size="13" font-weight="400" font-family="Arial, sans-serif">Proyecciones ilustrativas · Sin cifras comerciales reales</text><path d="M370 464H928M370 240V464" fill="none" stroke="#d5dcd2"/><path d="M375 434L483 394L590 365L700 322L809 298L920 250" fill="none" stroke="#42654e" stroke-width="4"/><path d="M375 443L483 424L590 402L700 385L809 370L920 348" fill="none" stroke="#a5b498" stroke-width="3" stroke-dasharray="7 6"/><text x="370" y="492" fill="#4b5052" font-size="12" font-weight="400" font-family="Arial, sans-serif">Inicio</text><text x="876" y="492" fill="#4b5052" font-size="12" font-weight="400" font-family="Arial, sans-serif">Periodo</text><rect x="349" y="520" width="128" height="30" rx="8" fill="#eef3ed" stroke="none"/><text x="361" y="540" fill="#365542" font-size="12" font-weight="600" font-family="Arial, sans-serif">Escenario A</text><rect x="501" y="520" width="128" height="30" rx="8" fill="#eef3ed" stroke="none"/><text x="513" y="540" fill="#365542" font-size="12" font-weight="600" font-family="Arial, sans-serif">Escenario B</text><rect x="0" y="594" width="1000" height="46" rx="0" fill="#ffffff" stroke="none"/><text x="30" y="622" fill="#4b5052" font-size="13" font-weight="400" font-family="Arial, sans-serif">Maqueta ilustrativa · Datos ficticios · Sin conexión a sistemas reales</text></svg>
